<svg width="20" height="20" viewBox="0 0 20 20" fill="none" xmlns="http://www.w3.org/2000/svg">
<path d="M13.152 7.66554C13.0469 8.80276 12.6202 9.88652 11.9216 10.79C11.223 11.6935 10.2816 12.3794 9.20747 12.7674C8.13334 13.1554 6.97092 13.2294 5.85623 12.9809C4.74154 12.7323 3.72069 12.1715 2.91314 11.3639C2.10558 10.5563 1.54471 9.5355 1.29616 8.42081C1.04761 7.30612 1.12166 6.1437 1.50965 5.06957C1.89763 3.99543 2.58351 3.054 3.48701 2.35545C4.39052 1.65689 5.47428 1.23009 6.6115 1.125C5.94569 2.02576 5.6253 3.13556 5.7086 4.25258C5.7919 5.36959 6.27335 6.4196 7.06539 7.21164C7.85744 8.00369 8.90745 8.48514 10.0245 8.56844C11.1415 8.65173 12.2513 8.33135 13.152 7.66554V7.66554Z" stroke="black" stroke-width="2" stroke-linecap="round" stroke-linejoin="round"/>
</svg>
